#!OML:ASF I:\Actors\actors\Patient Classification 2\Patient 1\Session 1\actor1.ASF
:FULLY-SPECIFIED
:DEGREES
371
root -1.0206 18.6336 6.21895 -0.299852 0.425423 -4.44854
lowerback 8.97107 1.53381 4.38916
upperback -3.12524 2.6966 1.29379
thorax -8.22156 1.12252 -1.52234
lowerneck -15.9333 -2.039 1.44272
upperneck 29.8224 -3.11681 -0.853906
head 12.4847 -1.32478 -1.04677
rclavicle 4.41504e-014 2.88735e-014
rhumerus -64.4734 -20.5132 -75.1044
rradius 40.7192
rwrist -2.23373
rhand -25.1093 -47.7313
rfingers 7.12502
rthumb 1.40601 -77.7064
lclavicle 4.41504e-014 2.88735e-014
lhumerus -55.6523 14.6945 84.2439
lradius 42.4197
lwrist 25.7713
lhand -31.5616 -24.6314
lfingers 7.12502
lthumb -4.82546 5.29364
rfemur 0 0 0
rtibia 0
rfoot 0 0
rtoes 0
lfemur -4.06362 -5.00422 -9.64571
ltibia 24.3765
lfoot -23.5397 11.2208
ltoes -55.907
372
root -0.957854 18.6354 6.22956 -0.252231 0.232246 -4.90653
lowerback 9.04939 1.59551 3.98794
upperback -3.17759 2.73018 1.2143
thorax -8.33422 1.15431 -1.39108
lowerneck -15.959 -2.0797 1.33485
upperneck 29.84 -3.2576 -0.499447
head 12.5061 -1.35263 -0.915741
rclavicle 1.72539e-014 1.95803e-014
rhumerus -64.5154 -20.4939 -75.1293
rradius 40.5054
rwrist -1.92735
rhand -24.2878 -47.1285
rfingers 7.12502
rthumb 2.1994 -77.0969
lclavicle 1.72539e-014 1.95803e-014
lhumerus -55.6994 14.617 84.1465
lradius 42.5202
lwrist 25.9924
lhand -31.0295 -24.0762
lfingers 7.12502
lthumb -4.31164 5.85993
rfemur 0 0 0
rtibia 0
rfoot 0 0
rtoes 0
lfemur -3.96232 -5.56785 -9.45802
ltibia 24.3503
lfoot -24.019 11.8276
ltoes -55.7965
373
root -0.895384 18.643 6.24067 -0.181049 -0.0583764 -5.27429
lowerback 9.10282 1.68074 3.47778
upperback -3.2083 2.77707 1.11732
thorax -8.41273 1.19934 -1.21832
lowerneck -16.0221 -2.10866 1.16182
upperneck 29.8107 -3.35879 -0.153167
head 12.5184 -1.3719 -0.77067
rclavicle -1.47349e-014 -5.56597e-015
rhumerus -64.4933 -20.352 -75.2635
rradius 40.3127
rwrist -1.8446
rhand -23.2088 -46.3927
rfingers 7.12502
rthumb 3.24144 -76.3478
lclavicle -1.47349e-014 -5.56597e-015
lhumerus -55.6891 14.6407 83.9726
lradius 42.5508
lwrist 26.0892
lhand -30.1923 -22.9076
lfingers 7.12502
lthumb -3.50313 7.04335
rfemur 0 0 0
rtibia 0
rfoot 0 0
rtoes 0
lfemur -3.82144 -6.1107 -9.36631
ltibia 24.2567
lfoot -24.5041 12.3641
ltoes -55.5445
374
root -0.835181 18.6538 6.25231 -0.0589713 -0.426803 -5.59686
lowerback 9.08833 1.79612 2.98098
upperback -3.23237 2.85791 0.969849
thorax -8.44104 1.26014 -1.10918
lowerneck -16.0652 -2.14429 0.990331
upperneck 29.7753 -3.47024 0.196099
head 12.5247 -1.39529 -0.625973
rclavicle -2.39411e-014 -1.59028e-015
rhumerus -64.3647 -20.1106 -75.627
rradius 40.1216
rwrist -2.13772
rhand -21.7089 -45.5461
rfingers 7.12502
rthumb 4.68982 -75.4742
lclavicle -2.39411e-014 -1.59028e-015
lhumerus -55.6043 14.724 83.7186
lradius 42.5466
lwrist 26.0394
lhand -29.0893 -20.8818
lfingers 7.12502
lthumb -2.43799 9.08397
rfemur 0 0 0
rtibia 0
rfoot 0 0
rtoes 0
lfemur -3.68486 -6.56671 -9.30104
ltibia 24.1057
lfoot -24.947 12.7461
ltoes -55.0556
375
root -0.777892 18.6659 6.26267 0.0472403 -0.804779 -5.97475
lowerback 9.06892 1.90496 2.6253
upperback -3.22974 2.94546 0.808531
thorax -8.43129 1.31719 -1.09385
lowerneck -16.1286 -2.18822 0.837163
upperneck 29.7362 -3.59861 0.542562
head 12.5339 -1.42437 -0.488438
rclavicle 1.74931e-014 1.31198e-014
rhumerus -64.1728 -19.7332 -76.1999
rradius 39.9858
rwrist -2.73248
rhand -19.6463 -44.3062
rfingers 7.12502
rthumb 6.68125 -74.1808
lclavicle 1.74931e-014 1.31198e-014
lhumerus -55.4427 14.7416 83.485
lradius 42.5081
lwrist 26.0426
lhand -27.6437 -18.5361
lfingers 7.12502
lthumb -1.04181 11.4411
rfemur 0 0 0
rtibia 0
rfoot 0 0
rtoes 0
lfemur -3.49898 -7.08753 -9.18521
ltibia 23.9117
lfoot -25.4116 13.2795
ltoes -54.6844
376
root -0.723056 18.6789 6.27272 0.0943964 -1.20124 -6.39812
lowerback 8.94283 1.95824 2.25527
upperback -3.08622 2.95809 0.749218
thorax -8.21657 1.34597 -0.943222
lowerneck -16.2978 -2.1775 0.734827
upperneck 29.5959 -3.61184 0.731145
head 12.5195 -1.41863 -0.402838
rclavicle 3.11843e-014 7.15625e-015
rhumerus -63.7596 -19.2232 -76.8105
rradius 39.7946
rwrist -3.34285
rhand -17.1641 -42.6826
rfingers 7.12502
rthumb 9.07701 -72.4673
lclavicle 3.11843e-014 7.15625e-015
lhumerus -55.1349 14.9941 83.2263
lradius 42.401
lwrist 26.172
lhand -25.6183 -16.4539
lfingers 7.12502
lthumb 0.914354 13.5239
rfemur 0 0 0
rtibia 0
rfoot 0 0
rtoes 0
lfemur -3.22797 -7.68449 -9.05273
ltibia 23.7111
lfoot -25.9534 14.0704
ltoes -54.6165
377
root -0.672352 18.6938 6.2818 0.149625 -1.5441 -6.82343
lowerback 8.52189 1.96169 1.74468
upperback -2.73522 2.88763 0.832819
thorax -7.62559 1.35048 -0.534348
lowerneck -16.6079 -2.12005 0.665973
upperneck 29.3293 -3.52325 0.785853
head 12.479 -1.38246 -0.359245
rclavicle -3.97072e-014 -4.77083e-015
rhumerus -63.0031 -18.6423 -77.4257
rradius 39.6763
rwrist -4.1685
rhand -14.4833 -41.2798
rfingers 7.12502
rthumb 11.6631 -70.9351
lclavicle -3.97072e-014 -4.77083e-015
lhumerus -54.5389 15.4691 83.116
lradius 42.2367
lwrist 26.4958
lhand -23.3861 -14.9344
lfingers 7.12502
lthumb 3.07023 15.0233
rfemur 0 0 0
rtibia 0
rfoot 0 0
rtoes 0
lfemur -3.01229 -8.15422 -8.88665
ltibia 23.5444
lfoot -26.3942 14.7982
ltoes -54.5761
378
root -0.62456 18.7097 6.28942 0.235971 -1.8064 -7.25945
lowerback 8.57713 2.01523 1.6111
upperback -2.75732 2.93859 0.736426
thorax -7.68154 1.37834 -0.571187
lowerneck -16.6196 -2.14985 0.65519
upperneck 29.2761 -3.63203 1.00491
head 12.4662 -1.40418 -0.29102
rclavicle 5.89645e-014 1.66979e-014
rhumerus -63.0137 -18.3074 -77.9834
rradius 39.9088
rwrist -5.55861
rhand -12.0352 -40.8128
rfingers 7.12502
rthumb 14.0231 -70.3197
lclavicle 5.89645e-014 1.66979e-014
lhumerus -54.4833 15.3605 82.9116
lradius 42.0881
lwrist 26.8795
lhand -21.7176 -13.9909
lfingers 7.12502
lthumb 4.68149 15.9374
rfemur 0 0 0
rtibia 0
rfoot 0 0
rtoes 0
lfemur -2.87624 -8.64309 -8.68621
ltibia 23.4116
lfoot -26.7893 15.4204
ltoes -54.3558
379
root -0.57916 18.724 6.29798 0.276574 -2.06269 -7.69443
lowerback 8.64826 2.02999 1.50708
upperback -2.756 2.94658 0.719187
thorax -7.72531 1.38616 -0.535197
lowerneck -16.6644 -2.13648 0.601322
upperneck 29.2355 -3.64977 1.17339
head 12.4649 -1.39662 -0.221176
rclavicle -2.71838e-014 -1.51076e-014
rhumerus -62.9373 -17.9741 -78.4069
rradius 39.981
rwrist -6.72959
rhand -10.4003 -40.8408
rfingers 7.12502
rthumb 15.5981 -70.2318
lclavicle -2.71838e-014 -1.51076e-014
lhumerus -54.4778 15.4092 82.7655
lradius 41.9697
lwrist 26.8832
lhand -20.8673 -13.467
lfingers 7.12502
lthumb 5.50243 16.4416
rfemur 0 0 0
rtibia 0
rfoot 0 0
rtoes 0
lfemur -2.68303 -9.21455 -8.50047
ltibia 23.3043
lfoot -27.253 15.9995
ltoes -54.0373
380
root -0.537788 18.7362 6.30765 0.27938 -2.24989 -8.13165
lowerback 8.73868 2.00122 1.45957
upperback -2.73934 2.90682 0.754394
thorax -7.76463 1.36944 -0.468898
lowerneck -16.7589 -2.11296 0.4919
upperneck 29.2267 -3.6344 1.33223
head 12.4874 -1.38086 -0.141204
rclavicle 5.51627e-015 -1.74931e-014
rhumerus -62.8267 -17.8593 -78.4763
rradius 39.7515
rwrist -7.08512
rhand -9.73402 -40.7596
rfingers 7.12502
rthumb 16.2398 -70.0994
lclavicle 5.51627e-015 -1.74931e-014
lhumerus -54.5011 15.4459 82.6984
lradius 41.9236
lwrist 26.6283
lhand -20.6121 -13.2992
lfingers 7.12502
lthumb 5.74883 16.6028
rfemur 0 0 0
rtibia 0
rfoot 0 0
rtoes 0
lfemur -2.48918 -9.4889 -8.24517
ltibia 23.2115
lfoot -27.4725 16.3501
ltoes -53.9669
381
root -0.501732 18.7469 6.31804 0.281647 -2.36479 -8.54865
lowerback 8.81159 1.99287 1.48505
upperback -2.72313 2.90308 0.795756
thorax -7.7905 1.36715 -0.441633
lowerneck -16.8976 -2.13234 0.386191
upperneck 29.301 -3.69197 1.51181
head 12.5539 -1.39221 -0.0661177
rclavicle 7.62836e-015 1.51076e-014
rhumerus -62.7914 -17.9471 -78.2976
rradius 39.4995
rwrist -7.27948
rhand -10.0977 -40.622
rfingers 7.12502
rthumb 15.8895 -69.9901
lclavicle 7.62836e-015 1.51076e-014
lhumerus -54.5105 15.3455 82.716
lradius 41.8534
lwrist 26.3612
lhand -20.5578 -13.3769
lfingers 7.12502
lthumb 5.80126 16.5237
rfemur 0 0 0
rtibia 0
rfoot 0 0
rtoes 0
lfemur -2.33234 -9.57506 -7.94359
ltibia 23.1162
lfoot -27.5566 16.5359
ltoes -54.0303
382
root -0.471443 18.7552 6.32908 0.271875 -2.48694 -8.87351
lowerback 8.86458 2.00155 1.47086
upperback -2.70295 2.91686 0.836518
thorax -7.80225 1.37553 -0.394582
lowerneck -17.0387 -2.17713 0.3337
upperneck 29.4005 -3.79219 1.65324
head 12.6297 -1.42102 -0.0213252
rclavicle 9.59136e-015 1.43125e-014
rhumerus -62.7706 -18.0186 -78.1305
rradius 39.3475
rwrist -7.6142
rhand -10.9368 -40.3967
rfingers 7.12502
rthumb 15.0813 -69.8273
lclavicle 9.59136e-015 1.43125e-014
lhumerus -54.5213 15.2451 82.7281
lradius 41.7596
lwrist 26.161
lhand -20.332 -13.4866
lfingers 7.12502
lthumb 6.01927 16.4079
rfemur 0 0 0
rtibia 0
rfoot 0 0
rtoes 0
lfemur -2.14816 -9.82292 -7.74804
ltibia 23.0162
lfoot -27.8723 16.7703
ltoes -53.9465
383
root -0.445128 18.7608 6.34153 0.231447 -2.57926 -9.08607
lowerback 8.89826 1.95089 1.37993
upperback -2.67509 2.84245 0.890227
thorax -7.80003 1.34514 -0.276516
lowerneck -17.0527 -2.19077 0.321079
upperneck 29.3954 -3.85703 1.79944
head 12.6357 -1.43213 0.0260928
rclavicle 5.96354e-015 1.51076e-014
rhumerus -62.7035 -17.9682 -78.0393
rradius 39.2307
rwrist -7.86007
rhand -11.4637 -40.1248
rfingers 7.12502
rthumb 14.5738 -69.5928
lclavicle 5.96354e-015 1.51076e-014
lhumerus -54.5893 15.1214 82.8048
lradius 41.8003
lwrist 26.3212
lhand -19.9834 -13.4294
lfingers 7.12502
lthumb 6.35588 16.4553
rfemur 0 0 0
rtibia 0
rfoot 0 0
rtoes 0
lfemur -1.94518 -10.0787 -7.67147
ltibia 22.9203
lfoot -28.1746 16.9856
ltoes -53.9222
384
root -0.424123 18.7659 6.35611 0.19898 -2.62412 -9.19065
lowerback 8.88455 1.88178 1.25325
upperback -2.65803 2.73733 0.931153
thorax -7.78286 1.30131 -0.145551
lowerneck -16.9584 -2.19266 0.333622
upperneck 29.3113 -3.90822 1.94555
head 12.5863 -1.43687 0.0729281
rclavicle 9.86469e-015 -3.18055e-014
rhumerus -62.6226 -17.884 -78.0016
rradius 39.1134
rwrist -8.0679
rhand -11.6137 -39.9992
rfingers 7.12502
rthumb 14.4293 -69.4776
lclavicle 9.86469e-015 -3.18055e-014
lhumerus -54.6627 14.8891 82.9846
lradius 41.902
lwrist 26.6941
lhand -19.6164 -13.2277
lfingers 7.12502
lthumb 6.71009 16.646
rfemur 0 0 0
rtibia 0
rfoot 0 0
rtoes 0
lfemur -1.77649 -10.2513 -7.6811
ltibia 22.8418
lfoot -28.3537 17.0974
ltoes -53.9286
385
root -0.407946 18.7702 6.37141 0.21364 -2.66941 -9.20112
lowerback 8.82261 1.86236 1.17721
upperback -2.67009 2.70025 0.916884
thorax -7.763 1.28676 -0.110301
lowerneck -16.9278 -2.22751 0.267841
upperneck 29.2883 -4.00335 2.1488
head 12.5791 -1.46022 0.147045
rclavicle 2.42269e-014 -2.38542e-015
rhumerus -62.6019 -17.8824 -77.9934
rradius 39.0412
rwrist -8.21382
rhand -11.5393 -39.8373
rfingers 7.12502
rthumb 14.5009 -69.3106
lclavicle 2.42269e-014 -2.38542e-015
lhumerus -54.6695 14.7898 83.0103
lradius 41.8285
lwrist 26.6278
lhand -19.2095 -13.1438
lfingers 7.12502
lthumb 7.10288 16.717
rfemur 0 0 0
rtibia 0
rfoot 0 0
rtoes 0
lfemur -1.67013 -10.4585 -7.77479
ltibia 22.7871
lfoot -28.5852 17.1902
ltoes -53.7906
